<svg width="17" height="25" viewBox="0 0 17 25" fill="none" xmlns="http://www.w3.org/2000/svg">
<path d="M7.92952 14.6022C3.49021 15.0035 0.108083 18.7546 0.167018 23.2116V23.4376C0.167018 24.3005 0.866579 25.0001 1.72952 25.0001C2.59246 25.0001 3.29202 24.3005 3.29202 23.4376V23.1491C3.24505 20.4125 5.26458 18.0789 7.97952 17.7324C10.8454 17.4482 13.3991 19.5411 13.6832 22.407C13.7 22.5764 13.7085 22.7465 13.7087 22.9168V23.4376C13.7087 24.3005 14.4082 25.0001 15.2712 25.0001C16.1341 25.0001 16.8337 24.3005 16.8337 23.4376V22.9168C16.8286 18.3092 13.0893 14.5782 8.48176 14.5833C8.29754 14.5835 8.11336 14.5898 7.92952 14.6022Z" fill="#1C3451"/>
<path d="M8.50037 12.5C11.9521 12.5 14.7504 9.70176 14.7504 6.25C14.7504 2.79824 11.9521 0 8.50037 0C5.04861 0 2.25037 2.79824 2.25037 6.25C2.25378 9.70034 5.05002 12.4965 8.50037 12.5ZM8.50037 3.125C10.2262 3.125 11.6254 4.52412 11.6254 6.25C11.6254 7.97588 10.2262 9.375 8.50037 9.375C6.77449 9.375 5.37537 7.97588 5.37537 6.25C5.37537 4.52412 6.77449 3.125 8.50037 3.125Z" fill="#1C3451"/>
</svg>
