<svg width="24" height="24" viewBox="0 0 24 24" fill="none" xmlns="http://www.w3.org/2000/svg">
<path d="M19 13C20.379 13 21.5 14.121 21.5 15.5C21.5 16.879 20.379 18 19 18C17.621 18 16.5 16.879 16.5 15.5C16.5 14.121 17.621 13 19 13ZM23.969 22.75C23.408 20.577 21.32 19 19 19C16.68 19 14.592 20.577 14.031 22.75C13.954 23.049 14.02 23.368 14.21 23.612C14.399 23.856 14.69 23.999 15 23.999H23C23.31 23.999 23.601 23.856 23.79 23.612C23.979 23.367 24.046 23.049 23.969 22.75ZM10.5 21H5.5C4.121 21 3 19.879 3 18.5V5.5C3 4.121 4.121 3 5.5 3H12.5C13.879 3 15 4.121 15 5.5V9.5C15 10.328 15.672 11 16.5 11C17.328 11 18 10.328 18 9.5V5.5C18 2.468 15.532 0 12.5 0H5.5C2.468 0 0 2.468 0 5.5V18.5C0 21.532 2.468 24 5.5 24H10.5C11.328 24 12 23.328 12 22.5C12 21.672 11.328 21 10.5 21ZM6.5 5C5.672 5 5 5.672 5 6.5C5 7.328 5.672 8 6.5 8C7.328 8 8 7.328 8 6.5C8 5.672 7.328 5 6.5 5ZM11.5 5C10.672 5 10 5.672 10 6.5C10 7.328 10.672 8 11.5 8C12.328 8 13 7.328 13 6.5C13 5.672 12.328 5 11.5 5ZM6.5 10C5.672 10 5 10.672 5 11.5C5 12.328 5.672 13 6.5 13C7.328 13 8 12.328 8 11.5C8 10.672 7.328 10 6.5 10ZM11.5 10C10.672 10 10 10.672 10 11.5C10 12.328 10.672 13 11.5 13C12.328 13 13 12.328 13 11.5C13 10.672 12.328 10 11.5 10ZM6.5 15C5.672 15 5 15.672 5 16.5C5 17.328 5.672 18 6.5 18C7.328 18 8 17.328 8 16.5C8 15.672 7.328 15 6.5 15ZM11.5 15C10.672 15 10 15.672 10 16.5C10 17.328 10.672 18 11.5 18C12.328 18 13 17.328 13 16.5C13 15.672 12.328 15 11.5 15Z" fill="#1C3451"/>
</svg>
