<svg width="25" height="25" viewBox="0 0 25 25" fill="none" xmlns="http://www.w3.org/2000/svg">
<path d="M17.1876 25C16.8033 24.9995 16.4327 24.8574 16.1465 24.6009C15.8604 24.3443 15.6788 23.9913 15.6366 23.6094C15.5438 22.8434 15.1737 22.1379 14.5962 21.6261C14.0187 21.1144 13.2738 20.8318 12.5022 20.8318C11.7306 20.8318 10.9857 21.1144 10.4082 21.6261C9.83072 22.1379 9.46062 22.8434 9.36783 23.6094C9.32224 24.0213 9.11489 24.3982 8.79139 24.6573C8.46789 24.9163 8.05474 25.0362 7.64283 24.9906C7.23091 24.945 6.85398 24.7377 6.59494 24.4142C6.33591 24.0907 6.21599 23.6775 6.26158 23.2656C6.43877 21.7348 7.17248 20.3224 8.32314 19.2973C9.47379 18.2721 10.9611 17.7057 12.5022 17.7057C14.0433 17.7057 15.5306 18.2721 16.6813 19.2973C17.8319 20.3224 18.5656 21.7348 18.7428 23.2656C18.7654 23.4696 18.7476 23.676 18.6904 23.8731C18.6332 24.0702 18.5378 24.254 18.4095 24.4142C18.2812 24.5744 18.1227 24.7078 17.9429 24.8067C17.7631 24.9056 17.5655 24.9681 17.3616 24.9906C17.3038 24.9969 17.2457 25 17.1876 25ZM23.6116 15.6156C23.8155 15.5931 24.0131 15.5306 24.1929 15.4317C24.3727 15.3328 24.5312 15.1994 24.6595 15.0392C24.7878 14.879 24.8832 14.6952 24.9404 14.4981C24.9976 14.301 25.0154 14.0946 24.9928 13.8906C24.8737 12.4285 24.2281 11.0593 23.1757 10.0372C22.1234 9.01516 20.7359 8.40972 19.271 8.33333C18.8566 8.33333 18.4591 8.49796 18.1661 8.79098C17.8731 9.08401 17.7085 9.48143 17.7085 9.89583C17.7085 10.3102 17.8731 10.7077 18.1661 11.0007C18.4591 11.2937 18.8566 11.4583 19.271 11.4583C19.9644 11.5376 20.6073 11.8599 21.0858 12.3681C21.5642 12.8762 21.8472 13.5374 21.8845 14.2344C21.9268 14.6167 22.1087 14.97 22.3952 15.2266C22.6818 15.4832 23.053 15.625 23.4376 15.625C23.495 15.6249 23.5524 15.6218 23.6095 15.6156H23.6116ZM3.11574 14.2344C3.15308 13.5374 3.43606 12.8762 3.91448 12.3681C4.39291 11.8599 5.03585 11.5376 5.72928 11.4583C6.14369 11.4583 6.54111 11.2937 6.83414 11.0007C7.12716 10.7077 7.29178 10.3102 7.29178 9.89583C7.29178 9.48143 7.12716 9.08401 6.83414 8.79098C6.54111 8.49796 6.14369 8.33333 5.72928 8.33333C4.26467 8.41021 2.8777 9.01587 1.8258 10.0379C0.773906 11.0599 0.128539 12.4288 0.00949238 13.8906C-0.0130929 14.0946 0.00471981 14.301 0.0619132 14.4981C0.119107 14.6952 0.21456 14.879 0.342824 15.0392C0.471087 15.1994 0.629648 15.3328 0.809451 15.4317C0.989254 15.5306 1.18678 15.5931 1.39074 15.6156C1.44783 15.6218 1.5052 15.6249 1.56262 15.625C1.94728 15.625 2.31843 15.4832 2.605 15.2266C2.89158 14.97 3.07343 14.6167 3.11574 14.2344ZM12.5803 16.6667C13.3014 16.6667 14.0063 16.4528 14.6058 16.0522C15.2054 15.6516 15.6727 15.0822 15.9486 14.416C16.2246 13.7498 16.2968 13.0168 16.1561 12.3096C16.0154 11.6023 15.6682 10.9527 15.1583 10.4428C14.6484 9.93296 13.9988 9.58573 13.2916 9.44506C12.5844 9.30438 11.8513 9.37658 11.1851 9.65252C10.5189 9.92847 9.94954 10.3958 9.54893 10.9953C9.14832 11.5949 8.93449 12.2998 8.93449 13.0208C8.93449 13.9878 9.31861 14.9151 10.0023 15.5988C10.6861 16.2826 11.6134 16.6667 12.5803 16.6667ZM18.8303 7.29167C19.5514 7.29167 20.2563 7.07784 20.8558 6.67723C21.4554 6.27663 21.9227 5.70722 22.1986 5.04103C22.4746 4.37485 22.5468 3.64179 22.4061 2.93457C22.2654 2.22735 21.9182 1.57772 21.4083 1.06784C20.8984 0.557962 20.2488 0.210731 19.5416 0.0700553C18.8344 -0.07062 18.1013 0.00157971 17.4351 0.277524C16.7689 0.553469 16.1995 1.02076 15.7989 1.62032C15.3983 2.21987 15.1845 2.92476 15.1845 3.64583C15.1845 4.12461 15.2788 4.5987 15.462 5.04103C15.6452 5.48337 15.9138 5.88528 16.2523 6.22383C16.5909 6.56237 16.9928 6.83092 17.4351 7.01415C17.8775 7.19737 18.3515 7.29167 18.8303 7.29167ZM6.33033 7.29167C7.0514 7.29167 7.75629 7.07784 8.35584 6.67723C8.9554 6.27663 9.42269 5.70722 9.69864 5.04103C9.97458 4.37485 10.0468 3.64179 9.90611 2.93457C9.76543 2.22735 9.4182 1.57772 8.90832 1.06784C8.39844 0.557962 7.74882 0.210731 7.04159 0.0700553C6.33437 -0.07062 5.60132 0.00157971 4.93513 0.277524C4.26894 0.553469 3.69954 1.02076 3.29893 1.62032C2.89832 2.21987 2.68449 2.92476 2.68449 3.64583C2.68449 4.61277 3.06861 5.5401 3.75233 6.22383C4.09088 6.56237 4.49279 6.83092 4.93513 7.01415C5.37746 7.19737 5.85155 7.29167 6.33033 7.29167Z" fill="#1C3451"/>
</svg>
