<svg width="40" height="25" viewBox="0 0 40 25" fill="none" xmlns="http://www.w3.org/2000/svg">
<path d="M24.6083 15.1046L19.6317 23.9611L18.1383 23.3088L23.165 14.373C23.395 14.0586 23.34 13.7838 23.2317 13.606C23.1717 13.5061 22.9933 13.2755 22.655 13.2755H15.7183C14.9333 13.2755 14.2283 12.9713 13.7833 12.4424C13.3583 11.937 13.2367 11.2935 13.45 10.6749L19.2667 1.21607L20.7317 1.91835L15.0283 11.1612C14.9833 11.3493 15.0533 11.4845 15.1233 11.5667C15.2517 11.7195 15.4683 11.8062 15.72 11.8062H22.6567C23.5167 11.8062 24.2817 12.2191 24.7033 12.9111C25.1333 13.6163 25.095 14.4567 24.6083 15.1046ZM36.6667 6.66248V4.45864C36.6667 2.43405 34.7983 0.785583 32.5 0.785583H25.225L24.3183 2.25481H32.5C33.8783 2.25481 35 3.2436 35 4.45864V8.1317H38.3333V16.947H35V20.6201C35 21.8352 33.8783 22.8239 32.5 22.8239H23.99L23.165 24.2932H32.5C34.7983 24.2932 36.6667 22.6447 36.6667 20.6201V18.4163H40V6.66248H36.6667ZM1.66667 22.8239V2.25481H14.8317L15.7383 0.785583H0V24.2932H13.8633L14.69 22.8239H1.66667Z" fill="white"/>
</svg>
