<svg width="29" height="30" viewBox="0 0 29 30" fill="none" xmlns="http://www.w3.org/2000/svg">
<path d="M10.25 23.5866H22.75V24.823H10.25V23.5866ZM1.5 22.9684V16.0827C0.7325 15.3025 0.25 14.2479 0.25 13.077C0.25 10.6907 2.2125 8.74948 4.625 8.74948C7.0375 8.74948 9 10.6907 9 13.077C9 14.2479 8.5175 15.3025 7.75 16.0827V22.9684L4.625 20.6501L1.5 22.9684ZM6.5 16.9705C5.93 17.2413 5.29875 17.4045 4.625 17.4045C3.95125 17.4045 3.32 17.24 2.75 16.9705V20.4955L4.625 19.1046L6.5 20.4955V16.9705ZM1.5 13.077C1.5 14.782 2.9025 16.168 4.625 16.168C6.3475 16.168 7.75 14.782 7.75 13.077C7.75 11.3719 6.3475 9.9859 4.625 9.9859C2.9025 9.9859 1.5 11.3719 1.5 13.077ZM10.25 19.8773H22.75V18.6409H10.25V19.8773ZM22.75 13.6952H11.4688C11.43 14.1205 11.3488 14.5322 11.235 14.9316H22.75V13.6952ZM29 9.11175V29.7687H4V23.5866H5.25V28.5323H27.75V9.9859H19V1.33091H7.125C6.09125 1.33091 5.25 2.16303 5.25 3.18555V6.27662H4V3.18555C4 1.48052 5.4025 0.0944824 7.125 0.0944824H19.8838L29 9.11175ZM26.8662 8.74948L20.25 2.20506V8.74948H26.8662Z" fill="#1B2F47"/>
</svg>
