<svg width="31" height="40" viewBox="0 0 31 40" fill="none" xmlns="http://www.w3.org/2000/svg">
<path d="M22.475 15.2852H13.175C11.0391 15.2852 9.3 17.0696 9.3 19.2646V25.6315C9.3 27.8264 11.0391 29.6108 13.175 29.6108H22.475C24.6124 29.6108 26.35 27.8264 26.35 25.6315V19.2646C26.35 17.0696 24.6124 15.2852 22.475 15.2852ZM24.8 19.2646V21.6521H17.05V16.877H22.475C23.7568 16.877 24.8 17.9482 24.8 19.2646ZM13.175 16.877H15.5V21.6521H10.85V19.2646C10.85 17.9482 11.8931 16.877 13.175 16.877ZM10.85 25.6315V23.2439H18.6V28.019H13.175C11.8931 28.019 10.85 26.9478 10.85 25.6315ZM22.475 28.019H20.15V23.2439H24.8V25.6315C24.8 26.9478 23.7568 28.019 22.475 28.019ZM1.55 37.5694H26.35V39.1611H0V9.7142C0 8.41535 0.60915 7.25976 1.55 6.53234V37.5694ZM29.8654 6.62785L25.482 2.12645C24.7488 1.37356 23.777 0.961304 22.7416 0.961304H8.525C6.3891 0.961304 4.65 2.74563 4.65 4.94062V34.3875H31V9.44043C31 8.37715 30.597 7.37914 29.8654 6.62625V6.62785ZM29.45 32.7942H6.2V4.93903C6.2 3.62267 7.24315 2.55144 8.525 2.55144H22.7416C23.3539 2.55144 23.9521 2.80611 24.3861 3.2502L28.7696 7.75161C29.202 8.1957 29.45 8.81169 29.45 9.44043V32.7942Z" fill="white"/>
</svg>
