<svg width="20" height="21" viewBox="0 0 20 21" fill="none" xmlns="http://www.w3.org/2000/svg">
<path d="M13.7792 6.93382L10.5892 10.1818L13.7792 13.4298L13.19 14.0297L10 10.7817L6.81 14.0297L6.22083 13.4298L9.41083 10.1818L6.22083 6.93382L6.81 6.33394L10 9.58194L13.19 6.33394L13.7792 6.93382ZM20 10.1818C20 15.7962 15.5142 20.3636 10 20.3636C4.48583 20.3636 0 15.7962 0 10.1818C0 4.56739 4.48583 0 10 0C15.5142 0 20 4.56739 20 10.1818ZM19.1667 10.1818C19.1667 5.03576 15.0542 0.848485 10 0.848485C4.94583 0.848485 0.833333 5.03576 0.833333 10.1818C0.833333 15.3279 4.94583 19.5152 10 19.5152C15.0542 19.5152 19.1667 15.3279 19.1667 10.1818Z" fill="white"/>
</svg>
