<svg width="22" height="21" viewBox="0 0 22 21" fill="none" xmlns="http://www.w3.org/2000/svg">
<path d="M1.21274 8.02742L11.5097 18.3244C11.1772 18.3568 10.8404 18.3743 10.5 18.3743C10.4204 18.3743 10.3477 18.3638 10.269 18.362L0.716613 8.80967C0.857488 8.56992 1.02636 8.30392 1.21274 8.02742ZM2.28111 6.62129L13.5642 17.9044C13.8784 17.8047 14.1881 17.6918 14.4935 17.5614L2.89011 5.95804C2.67311 6.17854 2.47186 6.40079 2.28111 6.62129ZM0.120738 11.0567C0.120738 11.0567 0.756863 12.3175 1.32474 13.1418L4.84749 16.6645C5.57024 17.1414 6.37524 17.5588 7.27824 17.858L0.00961304 10.5894C0.020113 10.7495 0.052488 10.9079 0.120738 11.0575V11.0567ZM16.8332 16.1885L20.6745 20.0298L20.0559 20.6484L0.326363 0.918918L0.944988 0.300293L4.92711 4.28242C6.62024 3.18342 8.49361 2.62604 10.5009 2.62604C17.3661 2.62604 20.5686 9.19379 20.9116 9.94279C21.0735 10.298 21.0735 10.704 20.9116 11.0575C20.5677 11.8083 19.2946 14.3038 16.8332 16.1894V16.1885ZM13.2764 12.6317C14.3307 11.2605 14.2301 9.28042 12.9754 8.02479C11.7206 6.76917 9.73961 6.66942 8.36849 7.72379L13.2764 12.6317ZM20.1136 10.6935C20.1705 10.5693 20.1705 10.4284 20.1136 10.305C19.7951 9.60942 16.8184 3.50017 10.4991 3.50017C8.72724 3.50017 7.06736 3.97617 5.55886 4.91592L7.74374 7.10167C9.46049 5.70867 11.9954 5.81017 13.5922 7.40704C15.1891 9.00392 15.2915 11.5388 13.8976 13.2555L16.2067 15.5647C18.6357 13.7412 19.88 11.201 20.1119 10.6944L20.1136 10.6935Z" fill="#1B2F47"/>
</svg>
