<svg width="28" height="28" viewBox="0 0 28 28" fill="none" xmlns="http://www.w3.org/2000/svg">
<path d="M13.9817 3.02896C17.5736 3.02896 17.9996 3.04241 19.4177 3.10744C20.8841 3.1747 22.3942 3.50878 23.4625 4.57715C24.541 5.65561 24.865 7.15111 24.9322 8.62194C24.9973 10.0401 25.0107 10.4661 25.0107 14.058C25.0107 17.6499 24.9973 18.0759 24.9322 19.494C24.8661 20.9525 24.5242 22.4771 23.4625 23.5388C22.3841 24.6173 20.8897 24.9412 19.4177 25.0085C17.9996 25.0735 17.5736 25.087 13.9817 25.087C10.3898 25.087 9.96382 25.0735 8.54568 25.0085C7.09838 24.9424 5.55356 24.5926 4.50088 23.5388C3.42803 22.4659 3.09844 20.9559 3.03117 19.494C2.96615 18.0759 2.9527 17.6499 2.9527 14.058C2.9527 10.4661 2.96615 10.0401 3.03117 8.62194C3.09731 7.16904 3.4426 5.63543 4.50088 4.57715C5.5771 3.50093 7.07821 3.1747 8.54568 3.10744C9.96382 3.04241 10.3898 3.02896 13.9817 3.02896ZM13.9817 0.605225C10.3282 0.605225 9.86965 0.620919 8.43469 0.685941C6.35512 0.781231 4.29012 1.3597 2.78678 2.86304C1.27783 4.37199 0.704968 6.43251 0.609678 8.51095C0.544656 9.94591 0.528961 10.4044 0.528961 14.058C0.528961 17.7115 0.544656 18.17 0.609678 19.605C0.704968 21.6823 1.28568 23.7529 2.78678 25.2529C4.29461 26.7607 6.35848 27.3347 8.43469 27.43C9.86965 27.495 10.3282 27.5107 13.9817 27.5107C17.6352 27.5107 18.0938 27.495 19.5287 27.43C21.6072 27.3347 23.6744 26.7551 25.1766 25.2529C26.6867 23.7428 27.2584 21.6834 27.3537 19.605C27.4188 18.17 27.4345 17.7115 27.4345 14.058C27.4345 10.4044 27.4188 9.94591 27.3537 8.51095C27.2584 6.43138 26.6789 4.36527 25.1766 2.86304C23.671 1.35746 21.6016 0.78011 19.5287 0.685941C18.0938 0.620919 17.6352 0.605225 13.9817 0.605225Z" fill="white"/>
<path d="M13.9818 7.1499C10.1668 7.1499 7.07378 10.2429 7.07378 14.0579C7.07378 17.8729 10.1668 20.9659 13.9818 20.9659C17.7967 20.9659 20.8897 17.8729 20.8897 14.0579C20.8897 10.2429 17.7967 7.1499 13.9818 7.1499ZM13.9818 18.5421C11.5053 18.5421 9.49751 16.5343 9.49751 14.0579C9.49751 11.5815 11.5053 9.57364 13.9818 9.57364C16.4582 9.57364 18.466 11.5815 18.466 14.0579C18.466 16.5343 16.4582 18.5421 13.9818 18.5421Z" fill="white"/>
<path d="M21.1632 8.49087C22.0547 8.49087 22.7775 7.76811 22.7775 6.87654C22.7775 5.98497 22.0547 5.26221 21.1632 5.26221C20.2716 5.26221 19.5488 5.98497 19.5488 6.87654C19.5488 7.76811 20.2716 8.49087 21.1632 8.49087Z" fill="white"/>
</svg>
