<svg width="24" height="25" viewBox="0 0 24 25" fill="none" xmlns="http://www.w3.org/2000/svg">
<path d="M23.201 9.56354C22.652 8.90104 21.888 8.47813 21.059 8.36458C20.511 3.65833 16.658 0 12 0C7.34197 0 3.48597 3.66042 2.94097 8.36875C2.12297 8.48854 1.37197 8.90938 0.827973 9.56354C0.192973 10.3281 -0.090027 11.3365 0.049973 12.3313L1.06097 19.5125C1.50197 22.6417 4.16897 25.001 7.26397 25.001H16.766C19.861 25.001 22.528 22.6417 22.969 19.5125L23.98 12.3313C24.12 11.3365 23.835 10.3271 23.201 9.56354ZM12 3.125C14.99 3.125 17.487 5.37188 18.02 8.33333H5.97997C6.51397 5.37188 9.00997 3.125 12 3.125ZM21.011 11.8771L20 19.0583C19.773 20.6635 18.383 21.875 16.766 21.875H7.26397C5.64697 21.875 4.25597 20.6635 4.02997 19.0583L3.01897 11.8771C3.00397 11.7771 3.03197 11.6865 3.09797 11.6063C3.14397 11.55 3.24697 11.4573 3.42197 11.4573H20.608C20.783 11.4573 20.885 11.55 20.931 11.6052C20.977 11.6615 21.029 11.7531 21.011 11.8771ZM16 15.1042V18.2292C16 19.0917 15.328 19.7917 14.5 19.7917C13.672 19.7917 13 19.0917 13 18.2292V15.1042C13 14.2417 13.672 13.5417 14.5 13.5417C15.328 13.5417 16 14.2417 16 15.1042ZM11 15.1042V18.2292C11 19.0917 10.328 19.7917 9.49997 19.7917C8.67197 19.7917 7.99997 19.0917 7.99997 18.2292V15.1042C7.99997 14.2417 8.67197 13.5417 9.49997 13.5417C10.328 13.5417 11 14.2417 11 15.1042Z" fill="#1C3451"/>
</svg>
