<svg width="24" height="25" viewBox="0 0 24 25" fill="none" xmlns="http://www.w3.org/2000/svg">
<path d="M17.7281 -8.50281e-05C16.3989 -0.000672674 15.0785 0.224865 13.8191 0.667623C13.2353 0.890771 12.6215 1.01696 12.0001 1.04158C11.3783 1.01687 10.7642 0.890678 10.1801 0.667623C8.92099 0.224832 7.60094 -0.000708476 6.27206 -8.50281e-05C5.44195 -0.0248305 4.61574 0.127242 3.84404 0.446814C3.07235 0.766387 2.37142 1.24673 1.78421 1.85841C1.197 2.47009 0.735868 3.20022 0.429078 4.00407C0.122289 4.80792 -0.0237005 5.66856 5.50917e-05 6.53325C5.50917e-05 12.9166 3.08306 19.1551 5.40006 23.2937C5.70255 23.8295 6.13792 24.2707 6.66049 24.5709C7.18306 24.8711 7.77357 25.0193 8.37006 24.9999C9.08732 24.9591 9.76163 24.6309 10.2518 24.0839C10.7421 23.537 11.0102 22.8137 11.0001 22.0655V15.6249C11.0001 15.3486 11.1054 15.0837 11.2929 14.8883C11.4805 14.693 11.7348 14.5833 12.0001 14.5833C12.2653 14.5833 12.5196 14.693 12.7072 14.8883C12.8947 15.0837 13.0001 15.3486 13.0001 15.6249V22.0655C12.9902 22.8133 13.2581 23.5361 13.7478 24.083C14.2376 24.6298 14.9112 24.9583 15.6281 24.9999C16.2243 25.0194 16.8147 24.8715 17.3372 24.5717C17.8597 24.2719 18.2952 23.8312 18.5981 23.2958C20.9171 19.1551 24.0001 12.9166 24.0001 6.53325C24.0238 5.66856 23.8778 4.80792 23.571 4.00407C23.2642 3.20022 22.8031 2.47009 22.2159 1.85841C21.6287 1.24673 20.9278 0.766387 20.1561 0.446814C19.3844 0.127242 18.5582 -0.0248305 17.7281 -8.50281e-05ZM16.0001 21.7291V15.6249C16.0001 14.5198 15.5786 13.46 14.8285 12.6786C14.0783 11.8972 13.0609 11.4582 12.0001 11.4582C10.9392 11.4582 9.92177 11.8972 9.17163 12.6786C8.42148 13.46 8.00006 14.5198 8.00006 15.6249V21.7291C5.85506 17.9041 3.00006 12.1624 3.00006 6.53325C2.97905 6.07986 3.04931 5.62692 3.20631 5.20349C3.36331 4.78007 3.60359 4.39552 3.91171 4.07456C4.21984 3.7536 4.589 3.50331 4.99549 3.33976C5.40198 3.17622 5.83681 3.10304 6.27206 3.12492C7.30551 3.1242 8.33176 3.30413 9.30806 3.65721C10.1739 3.97406 11.0825 4.14598 12.0001 4.16658C12.9173 4.14599 13.8255 3.97407 14.6911 3.65721C15.6677 3.30413 16.6943 3.1242 17.7281 3.12492C18.1635 3.10239 18.5986 3.17512 19.0053 3.33844C19.4121 3.50175 19.7815 3.75202 20.0898 4.07312C20.398 4.39422 20.6383 4.77903 20.7951 5.20275C20.9519 5.62647 21.0217 6.0797 21.0001 6.53325C21.0001 12.1624 18.1451 17.9041 16.0001 21.7291Z" fill="#1C3451"/>
</svg>
