<svg width="24" height="25" viewBox="0 0 24 25" fill="none" xmlns="http://www.w3.org/2000/svg">
<path d="M17.975 7.31771C19.34 8.73854 19.34 11.0521 17.975 12.4729L15.89 14.6458C15.598 14.951 15.213 15.1031 14.829 15.1031C14.445 15.1031 14.061 14.951 13.768 14.6458C13.182 14.0354 13.182 13.0469 13.768 12.4365L15.853 10.2635C16.048 10.0604 16.048 9.73021 15.853 9.52708L13.768 7.35417C13.182 6.74375 13.182 5.75521 13.768 5.14479C14.354 4.53437 15.304 4.53437 15.889 5.14479L17.975 7.31771ZM10.232 7.35417C10.818 6.74375 10.818 5.75521 10.232 5.14479C9.646 4.53437 8.696 4.53437 8.111 5.14479L6.026 7.31771C4.661 8.73854 4.661 11.0521 6.026 12.4729L8.111 14.6458C8.403 14.951 8.788 15.1031 9.172 15.1031C9.556 15.1031 9.94 14.951 10.233 14.6458C10.819 14.0354 10.819 13.0469 10.233 12.4365L8.148 10.2635C7.953 10.0604 7.953 9.73021 8.148 9.52708L10.232 7.35417ZM24 5.72813V14.0625C24 17.2208 21.533 19.7917 18.5 19.7917H13.5V21.875H16.5C17.329 21.875 18 22.575 18 23.4375C18 24.3 17.329 25 16.5 25H7.5C6.671 25 6 24.3 6 23.4375C6 22.575 6.671 21.875 7.5 21.875H10.5V19.7917H5.5C2.467 19.7917 0 17.2208 0 14.0625V5.72917C0 2.57083 2.467 0 5.5 0H18.5C21.533 0 24 2.56979 24 5.72813ZM21 5.72813C21 4.29167 19.878 3.12396 18.5 3.12396H5.5C4.122 3.12396 3 4.29167 3 5.72813V14.0625C3 15.499 4.122 16.6667 5.5 16.6667H18.5C19.878 16.6667 21 15.499 21 14.0625V5.72813Z" fill="#1C3451"/>
</svg>
