<svg width="24" height="21" viewBox="0 0 24 21" fill="none" xmlns="http://www.w3.org/2000/svg">
<path d="M21.5 8H21V7.5C21 6.122 19.878 5 18.5 5H16V3H17.5C18.329 3 19 2.329 19 1.5C19 0.671 18.329 0 17.5 0H11.5C10.671 0 9.99998 0.671 9.99998 1.5C9.99998 2.329 10.671 3 11.5 3H13V5H11.937C10.895 5 9.91498 5.459 9.24898 6.259L7.79798 8H7.50098C6.12298 8 5.00098 9.122 5.00098 10.5V11H3.00098V9.5C3.00098 8.671 2.32998 8 1.50098 8C0.671977 8 0.000976562 8.671 0.000976562 9.5V15.5C0.000976562 16.329 0.671977 17 1.50098 17C2.32998 17 3.00098 16.329 3.00098 15.5V14H5.00098V15.671C5.00098 16.606 5.36498 17.485 6.02598 18.146L7.85398 19.974C8.51498 20.635 9.39398 20.999 10.329 20.999H18.5C19.708 20.999 20.717 20.139 20.95 18.999H21.5C22.878 18.999 24 17.877 24 16.499V10.499C24 9.121 22.878 7.999 21.5 7.999V8ZM21 16H19.5C18.671 16 18 16.671 18 17.5V18H10.329C10.195 18 10.07 17.948 9.97498 17.854L8.14698 16.026C8.05298 15.931 8.00098 15.806 8.00098 15.672V11.001H8.50098C8.94598 11.001 9.36798 10.803 9.65298 10.461L11.553 8.18C11.648 8.066 11.788 8 11.937 8H18V9.5C18 10.329 18.671 11 19.5 11H21V16Z" fill="#1C3451"/>
</svg>
