<svg width="24" height="22" viewBox="0 0 24 22" fill="none" xmlns="http://www.w3.org/2000/svg">
<path d="M22.598 15.6891L14.419 9.67208C16.516 7.83008 17.473 6.48808 16.868 3.84008C16.449 2.00608 14.993 0.550076 13.158 0.132076C11.641 -0.215924 10.081 0.134076 8.884 1.09008C7.686 2.04508 7 3.47008 7 5.00108C7 5.83008 7.671 6.50108 8.5 6.50108C9.329 6.50108 10 5.83008 10 5.00108C10 4.38908 10.275 3.81808 10.754 3.43608C11.24 3.04808 11.855 2.91108 12.491 3.05808C13.198 3.21908 13.782 3.80308 13.943 4.51008C14.236 5.79308 14.175 5.99008 11.073 8.57608L1.381 15.7051C0.516 16.3641 0 17.4071 0 18.4941C0 20.4281 1.573 22.0001 3.506 22.0001H20.493C22.427 22.0001 23.999 20.4271 23.999 18.4941C23.999 17.4071 23.482 16.3641 22.597 15.6901L22.598 15.6891ZM20.494 19.0001H3.506C3.227 19.0001 3 18.7731 3 18.4941C3 18.3371 3.075 18.1871 3.179 18.1071L12 11.6181L20.8 18.0921C20.925 18.1871 21 18.3381 21 18.4941C21 18.7731 20.773 19.0001 20.494 19.0001Z" fill="#1C3451"/>
</svg>
