<svg width="25" height="24" viewBox="0 0 25 24" fill="none" xmlns="http://www.w3.org/2000/svg">
<path d="M25 10C25 9.60218 24.8354 9.22064 24.5424 8.93934C24.2493 8.65804 23.8519 8.5 23.4375 8.5H21.9083L21.0969 5.87C20.7684 4.84685 20.1338 3.93901 19.272 3.25944C18.4102 2.57987 17.3593 2.15859 16.25 2.048C15.889 1.4282 15.3627 0.91182 14.7251 0.551898C14.0875 0.191976 13.3615 0.00148754 12.6219 0L12.3781 0C11.6387 0.000361281 10.9128 0.189941 10.275 0.549214C9.63733 0.908486 9.11091 1.42446 8.75 2.044C7.62721 2.14627 6.56133 2.56629 5.6875 3.25081C4.81367 3.93534 4.17124 4.85354 3.84167 5.889L3.0375 8.5H1.5625C1.1481 8.5 0.750671 8.65804 0.457646 8.93934C0.16462 9.22064 0 9.60218 0 10C0 10.3978 0.16462 10.7794 0.457646 11.0607C0.750671 11.342 1.1481 11.5 1.5625 11.5H2.1125L1.61562 13.128C0.99655 13.6395 0.528864 14.2987 0.259697 15.039C-0.00947073 15.7794 -0.0706083 16.5747 0.0824451 17.345C0.235498 18.1152 0.597335 18.8331 1.13149 19.4264C1.66565 20.0196 2.35325 20.4672 3.125 20.724V22C3.125 22.5304 3.34449 23.0391 3.73519 23.4142C4.12589 23.7893 4.6558 24 5.20833 24C5.76087 24 6.29077 23.7893 6.68147 23.4142C7.07217 23.0391 7.29167 22.5304 7.29167 22V21H17.7083V22C17.7083 22.5304 17.9278 23.0391 18.3185 23.4142C18.7092 23.7893 19.2391 24 19.7917 24C20.3442 24 20.8741 23.7893 21.2648 23.4142C21.6555 23.0391 21.875 22.5304 21.875 22V20.724C22.6536 20.465 23.3464 20.0119 23.8825 19.4111C24.4185 18.8103 24.7784 18.0835 24.9254 17.3051C25.0723 16.5267 25.001 15.7249 24.7186 14.9817C24.4363 14.2385 23.9532 13.5808 23.3187 13.076L22.8333 11.5H23.4375C23.8519 11.5 24.2493 11.342 24.5424 11.0607C24.8354 10.7794 25 10.3978 25 10ZM6.83333 6.758C6.99634 6.24758 7.32611 5.80106 7.77389 5.48447C8.22167 5.16788 8.76368 4.99802 9.31979 5H15.625C16.1781 4.99711 16.7175 5.16456 17.1641 5.47774C17.6107 5.79092 17.9409 6.23334 18.1062 6.74L19.7281 12H5.21667L6.83333 6.758ZM20.3125 18H4.6875C4.2731 18 3.87567 17.842 3.58265 17.5607C3.28962 17.2794 3.125 16.8978 3.125 16.5C3.125 16.1022 3.28962 15.7206 3.58265 15.4393C3.87567 15.158 4.2731 15 4.6875 15H5.20833V15.5C5.20833 15.8978 5.37295 16.2794 5.66598 16.5607C5.959 16.842 6.35643 17 6.77083 17C7.18523 17 7.58266 16.842 7.87569 16.5607C8.16871 16.2794 8.33333 15.8978 8.33333 15.5V15H16.6667V15.5C16.6667 15.8978 16.8313 16.2794 17.1243 16.5607C17.4173 16.842 17.8148 17 18.2292 17C18.6436 17 19.041 16.842 19.334 16.5607C19.627 16.2794 19.7917 15.8978 19.7917 15.5V15H20.3125C20.7269 15 21.1243 15.158 21.4174 15.4393C21.7104 15.7206 21.875 16.1022 21.875 16.5C21.875 16.8978 21.7104 17.2794 21.4174 17.5607C21.1243 17.842 20.7269 18 20.3125 18Z" fill="#1C3451"/>
</svg>
