<svg width="24" height="25" viewBox="0 0 24 25" fill="none" xmlns="http://www.w3.org/2000/svg">
<path d="M20.469 1.19381L20.438 1.18236L17.847 0.283397C16.8445 -0.0638429 15.7656 -0.0932087 14.747 0.199022L9.44 1.80631C8.91369 1.95551 8.35369 1.90607 7.859 1.66673L7.359 1.42715C6.55122 1.07743 5.67309 0.940679 4.80244 1.02902C3.93178 1.11736 3.0955 1.42806 2.36769 1.93359C1.63988 2.43911 1.04302 3.12385 0.630019 3.92712C0.217015 4.73039 0.00061638 5.62738 0 6.53861L0 18.5417C0.00231329 19.738 0.375654 20.9016 1.06439 21.8589C1.75312 22.8162 2.72037 23.5161 3.822 23.8542L6.562 24.7469C7.07541 24.914 7.61011 24.9994 8.148 25.0001C8.62579 24.9901 9.1009 24.9229 9.564 24.8001L15.1 23.2084C15.5093 23.0918 15.9416 23.0954 16.349 23.2188L18.608 23.8969C19.25 24.0592 19.9189 24.0676 20.5644 23.9213C21.2099 23.775 21.8151 23.478 22.3343 23.0526C22.8535 22.6272 23.2732 22.0845 23.5618 21.4655C23.8503 20.8465 24.0002 20.1673 24 19.4792V6.41048C23.9984 5.26812 23.6584 4.15411 23.0265 3.22048C22.3945 2.28686 21.5014 1.5791 20.469 1.19381ZM14 3.68131V20.2813L10 21.4324V4.86256L14 3.68131ZM4.682 20.8615C4.19848 20.7164 3.77317 20.4119 3.4699 19.9936C3.16663 19.5753 3.00175 19.0659 3 18.5417V6.53861C2.99697 6.14049 3.08985 5.74795 3.27014 5.3969C3.45043 5.04586 3.71238 4.74753 4.032 4.52923C4.41609 4.25915 4.86859 4.11412 5.332 4.11256C5.61432 4.11185 5.894 4.16919 6.155 4.28131L7 4.65006V21.6167L4.682 20.8615ZM21 19.4792C20.9998 19.6889 20.9551 19.8959 20.8692 20.0855C20.7833 20.2751 20.6583 20.4426 20.5031 20.576C20.3478 20.7095 20.1662 20.8055 19.9712 20.8574C19.7762 20.9093 19.5726 20.9157 19.375 20.8761L17 20.1772V3.28444L19.475 4.14173C19.9215 4.31187 20.3072 4.62065 20.5799 5.02636C20.8526 5.43208 20.9993 5.9152 21 6.41048V19.4792Z" fill="#1C3451"/>
</svg>
