<svg width="24" height="25" viewBox="0 0 24 25" fill="none" xmlns="http://www.w3.org/2000/svg">
<path d="M20.0001 8.33333V10.4167H22.5001C22.8979 10.4167 23.2794 10.5813 23.5608 10.8743C23.8421 11.1673 24.0001 11.5648 24.0001 11.9792C24.0001 12.3936 23.8421 12.791 23.5608 13.084C23.2794 13.377 22.8979 13.5417 22.5001 13.5417H20.0001V15.625H22.5001C22.8979 15.625 23.2794 15.7896 23.5608 16.0826C23.8421 16.3757 24.0001 16.7731 24.0001 17.1875C24.0001 17.6019 23.8421 17.9993 23.5608 18.2924C23.2794 18.5854 22.8979 18.75 22.5001 18.75H20.0001V23.4375C20.0001 23.8519 19.8421 24.2493 19.5608 24.5424C19.2794 24.8354 18.8979 25 18.5001 25C18.1023 25 17.7207 24.8354 17.4394 24.5424C17.1581 24.2493 17.0001 23.8519 17.0001 23.4375V4.6875C17.0014 3.44472 17.4759 2.25324 18.3196 1.37446C19.1632 0.495681 20.307 0.00137857 21.5001 0L22.5001 0C22.8979 0 23.2794 0.16462 23.5608 0.457646C23.8421 0.750671 24.0001 1.1481 24.0001 1.5625C24.0001 1.9769 23.8421 2.37433 23.5608 2.66735C23.2794 2.96038 22.8979 3.125 22.5001 3.125H21.5001C21.1023 3.125 20.7207 3.28962 20.4394 3.58265C20.1581 3.87567 20.0001 4.2731 20.0001 4.6875V5.20833H22.5001C22.8979 5.20833 23.2794 5.37295 23.5608 5.66598C23.8421 5.959 24.0001 6.35643 24.0001 6.77083C24.0001 7.18523 23.8421 7.58266 23.5608 7.87569C23.2794 8.16871 22.8979 8.33333 22.5001 8.33333H20.0001ZM16.0001 20.0521C16.0037 21.0189 15.7345 21.9656 15.2259 22.7743C14.7174 23.5831 13.9919 24.2184 13.1396 24.6013C12.2873 24.9842 11.3458 25.0977 10.432 24.9279C9.51829 24.758 8.67262 24.3122 8.00009 23.6458C7.52018 24.1182 6.95082 24.4809 6.32849 24.7106C5.70617 24.9404 5.04462 25.0322 4.38626 24.9801C3.7279 24.9279 3.08726 24.7331 2.50541 24.408C1.92356 24.0829 1.41335 23.6348 1.00748 23.0923C0.601604 22.5498 0.309033 21.925 0.14852 21.2579C-0.0119931 20.5907 -0.0369054 19.896 0.07538 19.2183C0.187665 18.5405 0.434671 17.8947 0.80056 17.3222C1.16645 16.7497 1.64315 16.2631 2.20009 15.8938C3.35409 14.4354 4.91209 12.2479 6.21309 10.1917C4.49009 7.23542 3.00009 3.98854 3.00009 1.5625C3.00009 1.1481 3.15813 0.750671 3.43943 0.457646C3.72074 0.16462 4.10227 0 4.50009 0C4.89792 0 5.27945 0.16462 5.56075 0.457646C5.84206 0.750671 6.00009 1.1481 6.00009 1.5625C6.00009 2.925 6.82709 4.96667 8.00009 7.15104C9.17309 4.96354 10.0001 2.92396 10.0001 1.5625C10.0001 1.1481 10.1581 0.750671 10.4394 0.457646C10.7207 0.16462 11.1023 0 11.5001 0C11.8979 0 12.2794 0.16462 12.5608 0.457646C12.8421 0.750671 13.0001 1.1481 13.0001 1.5625C13.0001 3.98854 11.5091 7.23646 9.78309 10.1885C11.0831 12.2458 12.6411 14.4354 13.7961 15.8896C14.4701 16.3341 15.0255 16.9486 15.4108 17.6763C15.796 18.4039 15.9987 19.2211 16.0001 20.0521ZM6.50009 20.0521C6.50009 19.6915 6.39746 19.3391 6.20516 19.0393C6.01287 18.7395 5.73956 18.5059 5.41979 18.3679C5.10002 18.23 4.74815 18.1939 4.40868 18.2642C4.06922 18.3345 3.7574 18.5081 3.51265 18.7631C3.26791 19.018 3.10124 19.3428 3.03372 19.6965C2.96619 20.0501 3.00085 20.4166 3.1333 20.7497C3.26576 21.0828 3.49006 21.3675 3.77784 21.5678C4.06563 21.7681 4.40397 21.875 4.75009 21.875C5.21406 21.8745 5.65887 21.6822 5.98694 21.3405C6.31502 20.9987 6.49956 20.5354 6.50009 20.0521ZM8.00009 16.4583C8.47565 15.9974 9.03686 15.6429 9.64909 15.4167C9.14909 14.7313 8.58609 13.9188 8.00009 13.0375C7.41409 13.9188 6.84809 14.7313 6.35109 15.4167C6.96332 15.6429 7.52454 15.9974 8.00009 16.4583ZM13.0001 20.0479C12.9993 19.6876 12.896 19.3355 12.7032 19.0363C12.5104 18.7371 12.2369 18.5041 11.917 18.3667C11.5972 18.2294 11.2454 18.1939 10.9062 18.2647C10.567 18.3355 10.2556 18.5095 10.0112 18.7646C9.7669 19.0197 9.60063 19.3445 9.53343 19.698C9.46623 20.0515 9.50112 20.4178 9.63369 20.7506C9.76626 21.0835 9.99056 21.368 10.2783 21.5681C10.566 21.7682 10.9041 21.875 11.2501 21.875C11.7141 21.8745 12.1589 21.6822 12.4869 21.3405C12.815 20.9987 12.9996 20.5354 13.0001 20.0521V20.0479Z" fill="#1C3451"/>
</svg>
