<svg width="24" height="25" viewBox="0 0 24 25" fill="none" xmlns="http://www.w3.org/2000/svg">
<path d="M18.5001 10.4167H16.7921L16.9341 9.29484C17.0296 8.8148 17.0224 8.31871 16.9128 7.84193C16.8032 7.36515 16.594 6.91942 16.3001 6.53651C15.9813 6.11896 15.5756 5.78241 15.1135 5.55232C14.6514 5.32222 14.1452 5.20461 13.6331 5.20838H11.9921L12.2281 3.5688C12.2458 3.44548 12.3054 3.33288 12.396 3.25145C12.4867 3.17002 12.6024 3.12517 12.7221 3.12505H15.5001C15.8979 3.12505 16.2794 2.96043 16.5607 2.6674C16.842 2.37438 17.0001 1.97695 17.0001 1.56255C17.0001 1.14815 16.842 0.75072 16.5607 0.457694C16.2794 0.164668 15.8979 4.83667e-05 15.5001 4.83667e-05H12.7221C11.8828 -0.00446654 11.0702 0.307246 10.4341 0.877716C9.79807 1.44819 9.38145 2.23895 9.26108 3.10422L8.95808 5.20838H3.36707C2.85521 5.20431 2.34914 5.32147 1.88712 5.55101C1.42509 5.78055 1.01919 6.11647 0.700074 6.53338C0.406457 6.91605 0.19742 7.36143 0.0878392 7.83782C-0.0217419 8.31421 -0.0291732 8.80991 0.066074 9.28963L1.46607 20.398C1.65125 21.6898 2.27964 22.8679 3.23483 23.7141C4.19003 24.5603 5.40728 25.0171 6.66107 25H18.5001C19.9583 24.9984 21.3563 24.3943 22.3874 23.3202C23.4185 22.2461 23.9985 20.7898 24.0001 19.2709V16.1459C23.9985 14.6269 23.4185 13.1706 22.3874 12.0966C21.3563 11.0225 19.9583 10.4184 18.5001 10.4167ZM20.9491 15.625H11.5491C11.6644 15.0367 11.9713 14.5079 12.418 14.1282C12.8647 13.7485 13.4236 13.5414 14.0001 13.5417H18.5001C19.0762 13.5418 19.6347 13.7492 20.0809 14.1289C20.5272 14.5085 20.8338 15.037 20.9491 15.625ZM13.6331 8.33338C13.6926 8.33072 13.7519 8.3424 13.8063 8.36751C13.8608 8.39263 13.909 8.4305 13.9471 8.47817C14.0171 8.5688 13.9741 8.77088 13.9671 8.82192L13.7661 10.4167H11.2421L11.5421 8.33338H13.6331ZM3.05307 8.47817C3.09129 8.43062 3.13947 8.39284 3.19391 8.36773C3.24835 8.34263 3.30759 8.33088 3.36707 8.33338H8.50808L8.20808 10.4167H3.23407L3.03407 8.8188C3.02607 8.76776 2.98307 8.5688 3.05307 8.47817ZM4.44407 19.9907L3.62907 13.5417H9.10708C8.70861 14.3471 8.50051 15.2399 8.50008 16.1459V19.2709C8.50051 20.1769 8.70861 21.0697 9.10708 21.875H6.66107C6.1355 21.8923 5.62166 21.7111 5.21424 21.3648C4.80683 21.0185 4.5333 20.5305 4.44407 19.9907ZM18.5001 21.875H14.0001C13.337 21.875 12.7011 21.6007 12.2323 21.1123C11.7635 20.6239 11.5001 19.9615 11.5001 19.2709V18.75H13.5461L16.1681 20.5709C16.4145 20.742 16.704 20.8333 17.0001 20.8333C17.2962 20.8333 17.5857 20.742 17.8321 20.5709L20.4541 18.75H21.0001V19.2709C21.0001 19.9615 20.7367 20.6239 20.2678 21.1123C19.799 21.6007 19.1631 21.875 18.5001 21.875Z" fill="#1C3451"/>
</svg>
