<svg width="40" height="39" viewBox="0 0 40 39" fill="none" xmlns="http://www.w3.org/2000/svg">
<path d="M20 0.0737076C8.97167 0.0737076 0 8.64161 0 19.1736C0 29.7056 8.97167 38.2735 20 38.2735C31.0283 38.2735 40 29.7056 40 19.1736C40 8.64161 31.0283 0.0737076 20 0.0737076ZM20 36.6819C9.89167 36.6819 1.66667 28.827 1.66667 19.1736C1.66667 9.5202 9.89167 1.66537 20 1.66537C30.1083 1.66537 38.3333 9.5202 38.3333 19.1736C38.3333 28.827 30.1083 36.6819 20 36.6819ZM16.6667 8.032H18.3333V30.3152H16.6667V8.032ZM10 12.807H11.6667V25.5403H10V12.807ZM23.3333 11.2153H25V27.1319H23.3333V11.2153ZM30 15.9903H31.6667V23.9486H30V15.9903Z" fill="white"/>
</svg>
