<svg width="20" height="16" viewBox="0 0 20 16" fill="none" xmlns="http://www.w3.org/2000/svg">
<path d="M10.0001 11.332C11.8403 11.332 13.3321 9.84019 13.3321 7.99993C13.3321 6.15967 11.8403 4.66785 10.0001 4.66785C8.15979 4.66785 6.66797 6.15967 6.66797 7.99993C6.66797 9.84019 8.15979 11.332 10.0001 11.332Z" fill="white"/>
<path d="M19.389 5.84992C18.097 3.7457 15.1581 0.215332 9.99998 0.215332C4.8419 0.215332 1.90299 3.7457 0.610965 5.84992C-0.203655 7.16752 -0.203655 8.83237 0.610965 10.15C1.90299 12.2542 4.8419 15.7846 9.99998 15.7846C15.1581 15.7846 18.097 12.2542 19.389 10.15C20.2036 8.83237 20.2036 7.16752 19.389 5.84992ZM9.99998 12.9981C7.2396 12.9981 5.00183 10.7603 5.00183 7.99994C5.00183 5.23956 7.2396 3.0018 9.99998 3.0018C12.7604 3.0018 14.9981 5.23956 14.9981 7.99994C14.9954 10.7592 12.7592 12.9953 9.99998 12.9981Z" fill="white"/>
</svg>
