<svg width="83" height="85" viewBox="0 0 83 85" fill="none" xmlns="http://www.w3.org/2000/svg">
<g filter="url(#filter0_d_75_82)">
<path d="M44.6338 13.0985C44.6338 11.3589 46.0308 9.94703 47.7592 9.94703H60.4985L56.4667 5.79969C55.2571 4.55485 55.2759 2.55997 56.5104 1.34035C57.7387 0.12703 59.7234 0.139636 60.9298 1.38447L67.7338 8.3839C68.9559 9.61297 69.6372 11.2738 69.6372 13.0449C69.6372 14.8161 68.9528 16.48 67.712 17.7312L60.9298 24.7054C60.3203 25.3357 59.5077 25.6508 58.6982 25.6508C57.9075 25.6508 57.1167 25.3514 56.5104 24.7495C55.2759 23.5299 55.2602 21.535 56.4667 20.2902L60.3985 16.2437H47.7592C46.0308 16.2437 44.6338 14.8318 44.6338 13.0922V13.0985ZM76.3507 27.8001C74.7411 26.3221 72.6439 25.5563 70.4811 25.6634C68.3027 25.7643 66.2961 26.716 64.8741 28.2949L53.8069 40.072C53.9069 40.7338 54.0101 41.3956 54.0101 42.0826C54.0101 48.6472 49.15 54.2978 42.7054 55.2243L29.416 57.1026C27.7064 57.3484 26.1249 56.1508 25.8812 54.4301C25.6374 52.7063 26.825 51.1116 28.5315 50.8658L41.5396 49.0285C44.465 48.6062 47.0028 46.4884 47.6029 43.5701C48.5281 39.0793 45.1338 35.1084 40.8395 35.1084H32.1289V31.9569H33.3041C37.8266 31.9569 41.5052 28.2477 41.5052 23.6875C41.5052 19.6284 38.6204 16.1964 34.6511 15.5314L24.3841 13.8044C23.4402 13.6469 22.7557 12.8306 22.7557 11.8631C22.7557 10.779 23.6308 9.89661 24.706 9.89661H32.9696C34.0823 9.89661 35.1199 10.5017 35.6794 11.4723C36.5389 12.9788 38.4454 13.4956 39.9487 12.6226C41.4427 11.7497 41.9553 9.82412 41.0864 8.31772C39.4174 5.4026 36.3045 3.5905 32.9665 3.5905H32.1289C32.1289 1.85089 30.7318 0.439026 29.0035 0.439026C27.2751 0.439026 25.878 1.85089 25.878 3.5905H24.7029C20.1804 3.5905 16.5017 7.29979 16.5017 11.86C16.5017 15.9191 19.3865 19.351 23.3558 20.016L33.6229 21.743C34.5667 21.9006 35.2512 22.7168 35.2512 23.6843C35.2512 24.7684 34.3761 25.6508 33.3009 25.6508H25.0373C23.9246 25.6508 22.887 25.0458 22.3275 24.0751C21.468 22.5655 19.5584 22.0487 18.0582 22.9248C16.5642 23.7978 16.0517 25.7233 16.9205 27.2297C18.5895 30.1448 21.7025 31.9538 25.0404 31.9538H25.878V35.1053H16.5017C9.59765 35.1053 4 40.7496 4 47.7112V63.4686C4 70.4302 9.59765 76.0745 16.5017 76.0745H29.8223C38.5892 76.0745 46.9497 72.362 52.8693 65.8448L76.9414 39.344C79.9043 35.9971 79.6355 30.813 76.3507 27.7938V27.8001Z" fill="#1C3451"/>
</g>
<defs>
<filter id="filter0_d_75_82" x="0" y="0.439026" width="83" height="83.6354" filterUnits="userSpaceOnUse" color-interpolation-filters="sRGB">
<feFlood flood-opacity="0" result="BackgroundImageFix"/>
<feColorMatrix in="SourceAlpha" type="matrix" values="0 0 0 0 0 0 0 0 0 0 0 0 0 0 0 0 0 0 127 0" result="hardAlpha"/>
<feOffset dy="4"/>
<feGaussianBlur stdDeviation="2"/>
<feComposite in2="hardAlpha" operator="out"/>
<feColorMatrix type="matrix" values="0 0 0 0 0 0 0 0 0 0 0 0 0 0 0 0 0 0 0.25 0"/>
<feBlend mode="normal" in2="BackgroundImageFix" result="effect1_dropShadow_75_82"/>
<feBlend mode="normal" in="SourceGraphic" in2="effect1_dropShadow_75_82" result="shape"/>
</filter>
</defs>
</svg>
