<svg width="40" height="42" viewBox="0 0 40 42" fill="none" xmlns="http://www.w3.org/2000/svg">
<path d="M20 0.960419C18.3369 0.960419 16.6747 1.59426 15.4103 2.86366L1.89652 16.43C-0.632172 18.9688 -0.632172 23.1088 1.89652 25.6476L15.4103 39.2156C17.9384 41.7538 22.0616 41.7538 24.5897 39.2156L38.1035 25.6492C40.6322 23.1104 40.6322 18.9704 38.1035 16.4316L24.5912 2.86366C23.3269 1.59425 21.6631 0.960419 20 0.960419ZM20 2.55876C21.2495 2.55876 22.4998 3.03956 23.4579 4.00153L30.8089 11.3835H29.674C28.3989 11.3835 27.1758 11.892 26.274 12.7964C26.274 12.7969 26.274 12.7974 26.274 12.798L20.85 18.2437C20.3741 18.7214 19.6252 18.7219 19.1484 18.2437L13.7244 12.798C12.8239 11.8928 11.6011 11.3835 10.326 11.3835H9.18956L16.5437 4.00153C17.5018 3.03957 18.7505 2.55876 20 2.55876ZM7.58663 12.9928H10.326C11.1764 12.9928 11.9913 13.3314 12.5911 13.9343C12.5911 13.9348 12.5911 13.9353 12.5911 13.9358L18.0151 19.3815C19.1044 20.474 20.8947 20.4745 21.9833 19.3815L27.4073 13.9358C28.0091 13.3323 28.8236 12.9928 29.674 12.9928H32.4118L36.9702 17.5694C38.8864 19.4934 38.8864 22.5874 36.9702 24.5114L32.4134 29.0864H29.674C28.8236 29.0864 28.0091 28.7469 27.4073 28.1434L21.9833 22.6977C21.439 22.1512 20.7195 21.8789 20 21.8789C19.2804 21.8789 18.5597 22.1514 18.0151 22.6977L12.5911 28.1434C12.5911 28.1439 12.5911 28.1445 12.5911 28.145C11.9913 28.7478 11.1764 29.0864 10.326 29.0864H7.58819L3.02984 24.5098C1.11359 22.5859 1.11359 19.4918 3.02984 17.5679L7.58663 12.9928ZM20 23.4772C20.3063 23.4773 20.6121 23.5967 20.85 23.8356L26.274 29.2813C26.274 29.2818 26.274 29.2823 26.274 29.2828C27.1758 30.1872 28.3989 30.6957 29.674 30.6957H30.8104L23.4563 38.0777C21.5411 40.0006 18.459 40.0006 16.5437 38.0777L9.19114 30.6957H10.326C11.6011 30.6957 12.8239 30.1864 13.7244 29.2813L19.1484 23.8356C19.3868 23.5964 19.6937 23.4772 20 23.4772Z" fill="white"/>
</svg>
