<svg width="16" height="16" viewBox="0 0 16 16" fill="none" xmlns="http://www.w3.org/2000/svg">
<path d="M14.25 6.64739H9.25V1.70168C9.25 1.37376 9.1183 1.05927 8.88388 0.827397C8.64946 0.595522 8.33152 0.465256 8 0.465256C7.66848 0.465256 7.35054 0.595522 7.11612 0.827397C6.8817 1.05927 6.75 1.37376 6.75 1.70168V6.64739H1.75C1.41848 6.64739 1.10054 6.77766 0.866117 7.00954C0.631696 7.24141 0.5 7.5559 0.5 7.88382C0.5 8.21174 0.631696 8.52623 0.866117 8.75811C1.10054 8.98998 1.41848 9.12025 1.75 9.12025H6.75V14.066C6.75 14.3939 6.8817 14.7084 7.11612 14.9402C7.35054 15.1721 7.66848 15.3024 8 15.3024C8.33152 15.3024 8.64946 15.1721 8.88388 14.9402C9.1183 14.7084 9.25 14.3939 9.25 14.066V9.12025H14.25C14.5815 9.12025 14.8995 8.98998 15.1339 8.75811C15.3683 8.52623 15.5 8.21174 15.5 7.88382C15.5 7.5559 15.3683 7.24141 15.1339 7.00954C14.8995 6.77766 14.5815 6.64739 14.25 6.64739Z" fill="black"/>
</svg>
