<svg width="40" height="41" viewBox="0 0 40 41" fill="none" xmlns="http://www.w3.org/2000/svg">
<path d="M5 18.923H18.3333V5.86319H5V18.923ZM6.66667 7.49566H16.6667V17.2905H6.66667V7.49566ZM35 5.86319H21.6667V18.923H35V5.86319ZM33.3333 17.2905H23.3333V7.49566H33.3333V17.2905ZM5 35.2477H18.3333V22.1879H5V35.2477ZM6.66667 23.8204H16.6667V33.6152H6.66667V23.8204ZM8.33333 31.9827H15V25.4528H8.33333V31.9827ZM10 27.0853H13.3333V30.3503H10V27.0853ZM8.33333 15.658H15V9.12813H8.33333V15.658ZM10 10.7606H13.3333V14.0255H10V10.7606ZM31.6667 9.12813H25V15.658H31.6667V9.12813ZM30 14.0255H26.6667V10.7606H30V14.0255ZM31.6667 31.9827V27.0853H35V22.1879H30V25.4528H26.6667V22.1879H21.6667V27.0853H25V30.3503H21.6667V35.2477H26.6667V31.9827H31.6667ZM31.6667 23.8204H33.3333V25.4528H31.6667V23.8204ZM23.3333 25.4528V23.8204H25V25.4528H23.3333ZM26.6667 27.0853H30V30.3503H26.6667V27.0853ZM25 33.6152H23.3333V31.9827H25V33.6152ZM1.66667 12.3931H0V5.04695C0 2.79741 1.87 0.965775 4.16667 0.965775H11.6667V2.59825H4.16667C2.78833 2.59825 1.66667 3.6969 1.66667 5.04695V12.3931ZM4.16667 38.5126H11.6667V40.1451H4.16667C1.87 40.1451 0 38.3134 0 36.0639V28.7178H1.66667V36.0639C1.66667 37.414 2.78833 38.5126 4.16667 38.5126ZM38.3333 28.7178H40V36.0639C40 38.3134 38.13 40.1451 35.8333 40.1451H28.3333V38.5126H35.8333C37.2117 38.5126 38.3333 37.414 38.3333 36.0639V28.7178ZM40 5.04695V12.3931H38.3333V5.04695C38.3333 3.6969 37.2117 2.59825 35.8333 2.59825H28.3333V0.965775H35.8333C38.13 0.965775 40 2.79741 40 5.04695Z" fill="white"/>
</svg>
