<svg width="83" height="85" viewBox="0 0 83 85" fill="none" xmlns="http://www.w3.org/2000/svg">
<g filter="url(#filter0_d_75_84)">
<path d="M79 20.9861C79 23.5955 76.9 25.7133 74.3125 25.7133C71.725 25.7133 69.625 23.5955 69.625 20.9861C69.625 18.3767 71.725 16.2589 74.3125 16.2589C76.9 16.2589 79 18.3767 79 20.9861ZM52.4375 9.95594C55.025 9.95594 57.125 7.83815 57.125 5.22873C57.125 2.61931 55.025 0.501513 52.4375 0.501513C49.85 0.501513 47.75 2.61931 47.75 5.22873C47.75 7.83815 49.85 9.95594 52.4375 9.95594ZM55.3906 25.1839C55.9219 25.5431 56.525 25.7133 57.1219 25.7133C58.1313 25.7133 59.1219 25.2217 59.725 24.3109L72.225 5.40206C73.1813 3.95553 72.7937 1.99531 71.3594 1.03096C69.9219 0.0603066 67.9812 0.454241 67.025 1.90392L54.525 20.8128C53.5687 22.2593 53.9562 24.2195 55.3906 25.1839ZM21.9688 25.7133C31.8937 25.7133 39.9375 21.4809 39.9375 16.2589C39.9375 11.0369 31.8937 6.80447 21.9688 6.80447C12.0437 6.80447 4 11.0369 4 16.2589C4 21.4809 12.0437 25.7133 21.9688 25.7133ZM21.9688 50.9251C32.2125 50.9251 39.9375 46.1822 39.9375 39.895V33.592C39.9375 39.8036 32.45 44.6222 21.9688 44.6222C11.4875 44.6222 4 39.8036 4 33.592V39.895C4 46.1822 11.725 50.9251 21.9688 50.9251ZM21.9688 38.3192C32.2125 38.3192 39.9375 33.5763 39.9375 27.2891V20.9861C39.9375 27.1977 32.45 32.0163 21.9688 32.0163C11.4875 32.0163 4 27.1977 4 20.9861V27.2891C4 33.5763 11.725 38.3192 21.9688 38.3192ZM57.9062 32.0163C47.9813 32.0163 39.9375 36.2487 39.9375 41.4707C39.9375 46.6927 47.9813 50.9251 57.9062 50.9251C67.8312 50.9251 75.875 46.6927 75.875 41.4707C75.875 36.2487 67.8312 32.0163 57.9062 32.0163ZM57.9062 69.834C47.425 69.834 39.9375 65.0154 39.9375 58.8038C39.9375 65.0154 32.45 69.834 21.9688 69.834C11.4875 69.834 4 65.0154 4 58.8038V65.1068C4 71.394 11.725 76.1369 21.9688 76.1369C32.2125 76.1369 39.9375 71.394 39.9375 65.1068C39.9375 71.394 47.6625 76.1369 57.9062 76.1369C68.15 76.1369 75.875 71.394 75.875 65.1068V58.8038C75.875 65.0154 68.3875 69.834 57.9062 69.834ZM57.9062 57.2281C47.425 57.2281 39.9375 52.4095 39.9375 46.1979C39.9375 52.4095 32.45 57.2281 21.9688 57.2281C11.4875 57.2281 4 52.4095 4 46.1979V52.5009C4 58.7881 11.725 63.531 21.9688 63.531C32.2125 63.531 39.9375 58.7881 39.9375 52.5009C39.9375 58.7881 47.6625 63.531 57.9062 63.531C68.15 63.531 75.875 58.7881 75.875 52.5009V46.1979C75.875 52.4095 68.3875 57.2281 57.9062 57.2281Z" fill="#1C3451"/>
</g>
<defs>
<filter id="filter0_d_75_84" x="0" y="0.498322" width="83" height="83.6386" filterUnits="userSpaceOnUse" color-interpolation-filters="sRGB">
<feFlood flood-opacity="0" result="BackgroundImageFix"/>
<feColorMatrix in="SourceAlpha" type="matrix" values="0 0 0 0 0 0 0 0 0 0 0 0 0 0 0 0 0 0 127 0" result="hardAlpha"/>
<feOffset dy="4"/>
<feGaussianBlur stdDeviation="2"/>
<feComposite in2="hardAlpha" operator="out"/>
<feColorMatrix type="matrix" values="0 0 0 0 0 0 0 0 0 0 0 0 0 0 0 0 0 0 0.25 0"/>
<feBlend mode="normal" in2="BackgroundImageFix" result="effect1_dropShadow_75_84"/>
<feBlend mode="normal" in="SourceGraphic" in2="effect1_dropShadow_75_84" result="shape"/>
</filter>
</defs>
</svg>
