<svg width="45" height="45" viewBox="0 0 45 45" fill="none" xmlns="http://www.w3.org/2000/svg">
<g clip-path="url(#clip0_245_10)">
<path d="M45 22.5C45 18.0499 43.6804 13.6998 41.2081 9.99968C38.7357 6.29957 35.2217 3.41569 31.1104 1.71272C26.9991 0.00974894 22.4751 -0.435826 18.1105 0.432341C13.7459 1.30051 9.73679 3.44343 6.59011 6.59011C3.44343 9.73679 1.30051 13.7459 0.432341 18.1105C-0.435826 22.4751 0.00974894 26.9991 1.71272 31.1104C3.41569 35.2217 6.29957 38.7357 9.99968 41.2081C13.6998 43.6804 18.0499 45 22.5 45C28.4654 44.9936 34.1846 42.621 38.4028 38.4028C42.621 34.1846 44.9936 28.4654 45 22.5ZM3.75001 22.5C3.75001 18.7916 4.84968 15.1665 6.90996 12.0831C8.97023 8.99965 11.8986 6.59641 15.3247 5.17727C18.7508 3.75813 22.5208 3.38681 26.158 4.11029C29.7951 4.83376 33.136 6.61952 35.7583 9.24176C38.3805 11.864 40.1663 15.2049 40.8897 18.8421C41.6132 22.4792 41.2419 26.2492 39.8228 29.6753C38.4036 33.1014 36.0004 36.0298 32.917 38.0901C29.8335 40.1503 26.2084 41.25 22.5 41.25C17.5289 41.2446 12.7629 39.2674 9.24779 35.7522C5.73266 32.2371 3.75547 27.4711 3.75001 22.5Z" fill="#1C3451"/>
<path d="M15 22.4999C14.9986 21.1274 15.5002 19.802 16.41 18.7743C16.9556 18.1612 17.4863 17.5799 17.8669 17.1993L23.1619 11.8124C23.5148 11.4809 23.9822 11.2987 24.4663 11.3041C24.9505 11.3094 25.4138 11.5018 25.7593 11.841C26.1048 12.1802 26.3057 12.6399 26.3199 13.1238C26.3341 13.6078 26.1606 14.0785 25.8356 14.4374L20.5313 19.8374C20.1806 20.1899 19.7044 20.7149 19.2188 21.2605C18.9166 21.6031 18.7499 22.0441 18.7499 22.5009C18.7499 22.9576 18.9166 23.3986 19.2188 23.7412C19.7025 24.2849 20.1788 24.8099 20.5181 25.1512L25.8356 30.5624C26.1606 30.9213 26.3341 31.392 26.3199 31.876C26.3057 32.36 26.1048 32.8197 25.7593 33.1589C25.4138 33.498 24.9505 33.6904 24.4663 33.6958C23.9822 33.7011 23.5148 33.5189 23.1619 33.1874L17.8575 27.7912C17.4825 27.4162 16.9575 26.8405 16.4156 26.2293C15.5025 25.2018 14.9987 23.8746 15 22.4999Z" fill="#1C3451"/>
</g>
<defs>
<clipPath id="clip0_245_10">
<rect width="45" height="45" fill="white"/>
</clipPath>
</defs>
</svg>
