<svg width="35" height="35" viewBox="0 0 35 35" fill="none" xmlns="http://www.w3.org/2000/svg">
<path d="M23.3333 6.5625C23.3333 6.15417 23.6542 5.83333 24.0625 5.83333H32.8125C33.2208 5.83333 33.5417 6.15417 33.5417 6.5625C33.5417 6.97083 33.2208 7.29167 32.8125 7.29167H24.0625C23.6542 7.29167 23.3333 6.97083 23.3333 6.5625ZM34.3583 9.33333C33.9792 9.26042 33.5854 9.50833 33.4979 9.90208L32.2146 16.3042C31.7333 18.6813 29.6333 20.4021 27.2125 20.4021H8.575L6.75208 7.27708H19.6875C20.0958 7.27708 20.4167 6.95625 20.4167 6.54792C20.4167 6.13958 20.0958 5.81875 19.6875 5.81875H6.54792L6.16875 3.13542C5.92083 1.35625 4.375 0 2.56667 0H0.729167C0.320833 0 0 0.320833 0 0.729167C0 1.1375 0.320833 1.45833 0.729167 1.45833H2.56667C3.66042 1.45833 4.57917 2.275 4.73958 3.33958L7.33542 22.05C7.7875 25.2729 10.5729 27.7083 13.8396 27.7083H28.4521C28.8604 27.7083 29.1812 27.3875 29.1812 26.9792C29.1812 26.5708 28.8604 26.25 28.4521 26.25H13.825C11.3021 26.25 9.12917 24.3688 8.77917 21.875H27.2125C30.3333 21.875 33.0312 19.6583 33.6437 16.5958L34.9271 10.1938C35 9.8 34.7521 9.42083 34.3583 9.33333ZM13.125 32.0833C13.125 33.6875 11.8125 35 10.2083 35C8.60417 35 7.29167 33.6875 7.29167 32.0833C7.29167 30.4792 8.60417 29.1667 10.2083 29.1667C11.8125 29.1667 13.125 30.4792 13.125 32.0833ZM11.6667 32.0833C11.6667 31.2812 11.0104 30.625 10.2083 30.625C9.40625 30.625 8.75 31.2812 8.75 32.0833C8.75 32.8854 9.40625 33.5417 10.2083 33.5417C11.0104 33.5417 11.6667 32.8854 11.6667 32.0833ZM27.7083 32.0833C27.7083 33.6875 26.3958 35 24.7917 35C23.1875 35 21.875 33.6875 21.875 32.0833C21.875 30.4792 23.1875 29.1667 24.7917 29.1667C26.3958 29.1667 27.7083 30.4792 27.7083 32.0833ZM26.25 32.0833C26.25 31.2812 25.5937 30.625 24.7917 30.625C23.9896 30.625 23.3333 31.2812 23.3333 32.0833C23.3333 32.8854 23.9896 33.5417 24.7917 33.5417C25.5937 33.5417 26.25 32.8854 26.25 32.0833Z" fill="white"/>
</svg>
