<svg width="30" height="31" viewBox="0 0 30 31" fill="none" xmlns="http://www.w3.org/2000/svg">
<path d="M30 11.3586L26.7088 0.951569H3.29L0 11.3586C0 12.5229 0.4775 13.5808 1.25 14.3546V27.2752C1.25 28.9623 2.6525 30.336 4.375 30.336H15.625C17.3487 30.336 18.75 28.9623 18.75 27.2752V15.23C19.5287 14.8663 20.1825 14.2836 20.625 13.5636C21.3913 14.8088 22.785 15.6438 24.375 15.6438H25.625C26.295 15.6438 26.9312 15.4944 27.5 15.23V30.336H28.75V14.3546C29.5225 13.5808 30 12.5242 30 11.3586ZM15.625 29.1117H4.375C3.34125 29.1117 2.5 28.2877 2.5 27.2752V22.9899H17.5V27.2752C17.5 28.2877 16.6588 29.1117 15.625 29.1117ZM17.5 21.7656H2.5V15.23C3.06875 15.4957 3.705 15.6438 4.375 15.6438H5.625C7.215 15.6438 8.60875 14.8088 9.375 13.5636C10.1412 14.8088 11.535 15.6438 13.125 15.6438H16.875C17.0875 15.6438 17.2962 15.6291 17.5 15.5997V21.7656ZM24.375 14.4195C22.6513 14.4195 21.25 13.0457 21.25 11.3586V10.7464H20V11.3586C20 13.0457 18.5987 14.4195 16.875 14.4195H13.125C11.4025 14.4195 10 13.0457 10 11.3586V10.7464H8.75V11.3586C8.75 13.0457 7.3475 14.4195 5.625 14.4195H4.375C2.6825 14.4195 1.3 13.0947 1.25125 11.4479L4.21 2.17592H8.75V7.07334H10V2.17592H20V7.07334H21.25V2.17592H25.7912L28.7488 11.4479C28.7 13.0947 27.3175 14.4195 25.625 14.4195H24.375Z" fill="#1B2F47"/>
</svg>
