<svg width="40" height="30" viewBox="0 0 40 30" fill="none" xmlns="http://www.w3.org/2000/svg">
<path d="M13.8527 12.0922C13.8327 12.2459 13.8911 12.3825 14.0131 12.4671C14.0131 12.4671 14.7515 12.7796 15.1456 12.9273C16.149 13.3039 16.4018 14.0323 16.3042 14.5882C16.1743 15.3311 15.4707 15.8716 14.633 15.8716C13.9434 15.8716 13.2956 15.5898 12.8563 15.098L12.5642 14.7709L13.2102 14.1749L13.5022 14.5028C13.7725 14.8051 14.1944 14.9852 14.633 14.9852C15.0976 14.9852 15.3984 14.7009 15.4463 14.4319C15.5152 14.0417 15.0035 13.818 14.8448 13.759C14.2067 13.5191 13.6217 13.2552 13.6191 13.2552C13.1474 12.9495 12.919 12.4799 12.9905 11.965C13.0664 11.433 13.4508 10.9992 13.9948 10.8336C15.095 10.4929 16.0217 11.2785 16.0304 11.287L16.3643 11.5722L15.8029 12.2502L15.4699 11.9658C15.4463 11.9471 14.8771 11.4842 14.245 11.6815C13.9312 11.7771 13.8658 12 13.8527 12.0922ZM25.3272 11.6798C25.9627 11.4902 26.5285 11.9462 26.552 11.9641L26.8851 12.2485L27.4465 11.5713L27.1126 11.2861C27.1039 11.2785 26.1772 10.4946 25.077 10.8319C24.533 10.9984 24.1485 11.4322 24.0727 11.9641C24.0003 12.479 24.2296 12.9487 24.7012 13.2544C24.7038 13.2544 25.2888 13.5182 25.927 13.7582C26.0856 13.8171 26.5974 14.0408 26.5285 14.4311C26.4806 14.7035 26.1632 14.9844 25.7151 14.9844C25.2775 14.9844 24.8547 14.8034 24.5844 14.5019L24.2915 14.174L23.6464 14.7692L23.9393 15.0971C24.3778 15.5889 25.0255 15.8707 25.7151 15.8707C26.5529 15.8707 27.2564 15.3311 27.3863 14.5873C27.484 14.0306 27.2312 13.3022 26.2277 12.9265C25.8319 12.7779 25.0953 12.4654 25.0953 12.4654C24.9732 12.3817 24.9148 12.2451 24.9349 12.0914C24.9488 11.9991 25.0133 11.7754 25.3272 11.6798ZM30.4664 6.90477V21.848H24.336L20.8619 24.6616C20.6221 24.8709 20.3161 24.9759 20.0084 24.9759C19.698 24.9759 19.3851 24.8683 19.1357 24.6514L15.7384 21.848H9.54346V6.90563C9.54346 5.7281 10.5216 4.77087 11.7229 4.77087H28.2869C29.4882 4.77087 30.4664 5.72724 30.4664 6.90477ZM29.5946 6.90477C29.5946 6.1986 29.0079 5.62392 28.2869 5.62392H11.7229C11.002 5.62392 10.4152 6.1986 10.4152 6.90477V20.9941H16.0566L19.7068 24.005C19.8811 24.157 20.1287 24.1578 20.2952 24.0127L24.023 20.9941H29.5946V6.90477ZM21.9377 10.7473L20.0058 12.7523L18.0817 10.7473H17.3895V15.8707H18.2613V12.1819L20.0049 13.9981L21.7485 12.1879V15.8707H22.6203V10.7473H21.9377Z" fill="white"/>
<path d="M35.4497 29.3494H4.55366C2.3166 29.3494 0.49249 27.5675 0.489238 25.3763C0.485986 23.5832 0.484361 21.5083 0.487612 20.5099V19.822L1.18507 19.7232C3.57332 19.3888 5.37304 17.3665 5.37304 15.0177C5.37304 12.6689 3.57332 10.6449 1.18507 10.3121L0.489238 10.215V9.52544C0.482735 8.191 0.495741 4.66382 0.495741 4.66382C0.495741 2.47266 2.31985 0.685974 4.56016 0.685974H35.4497C37.69 0.685974 39.5141 2.47266 39.5141 4.667V10.2134L38.8167 10.3121C36.4333 10.6497 34.6368 12.672 34.6368 15.0177C34.6368 17.3633 36.4333 19.3856 38.8167 19.7232L39.5141 19.822V25.3683C39.5141 27.5627 37.69 29.3494 35.4497 29.3494ZM2.11175 21.1644C2.11175 22.2631 2.11175 23.9129 2.115 25.3747C2.115 26.6884 3.21077 27.7585 4.55366 27.7585H35.4497C36.7942 27.7585 37.8884 26.6868 37.8884 25.3699V21.1628C35.0644 20.4462 33.0111 17.9159 33.0111 15.0193C33.0111 12.1227 35.0644 9.59232 37.8884 8.87574V4.66859C37.8884 3.35167 36.7942 2.27998 35.4497 2.27998H4.56016C3.21565 2.27998 2.12151 3.35167 2.12151 4.66859C2.12151 4.67178 2.11175 7.29925 2.11175 8.87256C4.94221 9.58595 6.99881 12.1163 6.99881 15.0193C6.99881 17.9222 4.94221 20.4526 2.11175 21.166V21.1644Z" fill="white"/>
</svg>
