<svg width="24" height="31" viewBox="0 0 24 31" fill="none" xmlns="http://www.w3.org/2000/svg">
<path d="M17 0.861015H16.8375C16.2781 0.866272 15.7363 1.05515 15.2971 1.398C14.858 1.74084 14.5464 2.21823 14.4113 2.75522C14.2665 3.27803 13.9522 3.73932 13.5165 4.06813C13.0808 4.39694 12.548 4.57504 12 4.57504C11.452 4.57504 10.9192 4.39694 10.4835 4.06813C10.0478 3.73932 9.73347 3.27803 9.58875 2.75522C9.45362 2.21823 9.14202 1.74084 8.70288 1.398C8.26374 1.05515 7.72192 0.866272 7.1625 0.861015L7 0.861015C5.34301 0.862979 3.75445 1.51494 2.58277 2.67389C1.4111 3.83284 0.751985 5.40415 0.75 7.04315V26.826C0.75 27.8098 1.14509 28.7532 1.84835 29.4489C2.55161 30.1445 3.50544 30.5353 4.5 30.5353H7.1625C7.72192 30.53 8.26374 30.3411 8.70288 29.9983C9.14202 29.6555 9.45362 29.1781 9.58875 28.6411C9.73347 28.1183 10.0478 27.657 10.4835 27.3282C10.9192 26.9994 11.452 26.8213 12 26.8213C12.548 26.8213 13.0808 26.9994 13.5165 27.3282C13.9522 27.657 14.2665 28.1183 14.4113 28.6411C14.5464 29.1781 14.858 29.6555 15.2971 29.9983C15.7363 30.3411 16.2781 30.53 16.8375 30.5353H19.5C20.4946 30.5353 21.4484 30.1445 22.1517 29.4489C22.8549 28.7532 23.25 27.8098 23.25 26.826V7.04315C23.248 5.40415 22.5889 3.83284 21.4172 2.67389C20.2456 1.51494 18.657 0.862979 17 0.861015ZM19.5 28.0624L16.8213 27.9845C16.5277 26.9353 15.8923 26.0112 15.0136 25.3556C14.135 24.7 13.0622 24.3494 11.9617 24.3583C10.8611 24.3672 9.79423 24.735 8.92653 25.4047C8.05882 26.0744 7.43876 27.0086 7.1625 28.0624H4.5C4.16848 28.0624 3.85054 27.9322 3.61612 27.7003C3.3817 27.4684 3.25 27.1539 3.25 26.826V21.8803H5.75C6.08152 21.8803 6.39946 21.75 6.63388 21.5181C6.8683 21.2863 7 20.9718 7 20.6439C7 20.3159 6.8683 20.0014 6.63388 19.7696C6.39946 19.5377 6.08152 19.4074 5.75 19.4074H3.25V7.04315C3.25 6.05939 3.64509 5.11592 4.34835 4.4203C5.05161 3.72467 6.00544 3.33387 7 3.33387L7.17875 3.41177C7.47153 4.4546 8.10124 5.37403 8.97177 6.02972C9.8423 6.6854 10.9058 7.04132 12 7.04315C13.1089 7.03382 14.1845 6.66642 15.0629 5.99684C15.9413 5.32727 16.5745 4.39218 16.8662 3.33387H17C17.9946 3.33387 18.9484 3.72467 19.6517 4.4203C20.3549 5.11592 20.75 6.05939 20.75 7.04315V19.4074H18.25C17.9185 19.4074 17.6005 19.5377 17.3661 19.7696C17.1317 20.0014 17 20.3159 17 20.6439C17 20.9718 17.1317 21.2863 17.3661 21.5181C17.6005 21.75 17.9185 21.8803 18.25 21.8803H20.75V26.826C20.75 27.1539 20.6183 27.4684 20.3839 27.7003C20.1495 27.9322 19.8315 28.0624 19.5 28.0624Z" fill="#7B167D"/>
</svg>
