<svg width="30" height="28" viewBox="0 0 30 28" fill="none" xmlns="http://www.w3.org/2000/svg">
<path d="M30 11.7413C30 8.70363 27.4762 6.23166 24.375 6.23166H21.25V3.17078C21.25 1.48362 19.8487 0.109894 18.125 0.109894H15V1.33425H18.125C19.1588 1.33425 20 2.15824 20 3.17078V20.9239H1.25V13.5778H0V22.1483H2.72C2.575 22.5388 2.5 22.9514 2.5 23.3726C2.5 25.3977 4.1825 27.0457 6.25 27.0457C8.3175 27.0457 10 25.3977 10 23.3726C10 22.9514 9.925 22.5388 9.78 22.1483H20.22C20.075 22.5388 20 22.9514 20 23.3726C20 25.3977 21.6825 27.0457 23.75 27.0457C25.8175 27.0457 27.5 25.3977 27.5 23.3726C27.5 22.9514 27.425 22.5388 27.28 22.1483H30V11.7413ZM8.75 23.3726C8.75 24.7231 7.62875 25.8213 6.25 25.8213C4.87125 25.8213 3.75 24.7231 3.75 23.3726C3.75 22.9416 3.86875 22.5241 4.09625 22.1483H8.40375C8.63125 22.5241 8.75 22.9416 8.75 23.3726ZM24.375 7.45601C26.7875 7.45601 28.75 9.37825 28.75 11.7413V13.5778H21.25V7.45601H24.375ZM26.25 23.3726C26.25 24.7231 25.1287 25.8213 23.75 25.8213C22.3713 25.8213 21.25 24.7231 21.25 23.3726C21.25 22.9416 21.3687 22.5241 21.5963 22.1483H25.9037C26.1313 22.5241 26.25 22.9416 26.25 23.3726ZM21.25 20.9239V14.8021H28.75V20.9239H21.25ZM12.5 1.33425H0V0.109894H12.5V1.33425ZM10 6.23166H0V5.00731H10V6.23166ZM7.5 11.1291H0V9.90472H7.5V11.1291Z" fill="#1B2F47"/>
</svg>
