<svg width="27" height="28" viewBox="0 0 27 28" fill="none" xmlns="http://www.w3.org/2000/svg">
<path d="M22.9487 4.57724C21.7152 3.33232 20.2463 2.34534 18.6275 1.67381C17.0087 1.00228 15.2725 0.659643 13.52 0.665854C6.17648 0.665854 0.191695 6.64896 0.184969 13.9942C0.184969 16.3467 0.800432 18.6354 1.96241 20.6617L0.0773468 27.5713L7.14676 25.7182C9.10246 26.7825 11.2935 27.3404 13.52 27.341H13.5267C20.8719 27.341 26.855 21.3579 26.8618 14.0059C26.8634 12.2538 26.5184 10.5186 25.8465 8.90041C25.1747 7.2822 24.1909 5.81293 22.9487 4.57724ZM13.52 25.0843C11.534 25.0849 9.58457 24.5505 7.87657 23.5372L7.47299 23.2951L3.2791 24.3948L4.39904 20.3035L4.13671 19.8814C3.02654 18.1163 2.43939 16.0727 2.44335 13.9874C2.44335 7.88998 7.41582 2.91583 13.5267 2.91583C14.9826 2.91321 16.4245 3.19879 17.7694 3.7561C19.1144 4.31341 20.3357 5.13143 21.3629 6.16298C22.3938 7.19052 23.2111 8.41199 23.7675 9.75694C24.324 11.1019 24.6086 12.5437 24.6051 13.9992C24.5983 20.1185 19.6259 25.0843 13.52 25.0843ZM19.599 16.7873C19.2677 16.6208 17.6315 15.8153 17.3238 15.701C17.0177 15.5917 16.7941 15.5345 16.5755 15.8675C16.3518 16.1987 15.7128 16.9538 15.5211 17.1707C15.3294 17.3943 15.131 17.4196 14.798 17.2548C14.4667 17.0866 13.3922 16.7368 12.1209 15.5984C11.1288 14.7156 10.4645 13.6225 10.2661 13.2913C10.0744 12.9583 10.2476 12.7801 10.4141 12.6136C10.5604 12.4656 10.7454 12.2234 10.9118 12.0317C11.08 11.84 11.1355 11.6988 11.2448 11.4768C11.3541 11.2515 11.302 11.0598 11.2196 10.8933C11.1355 10.7268 10.4713 9.08391 10.1904 8.42136C9.92139 7.76722 9.64729 7.85803 9.44214 7.84962C9.25044 7.83785 9.02678 7.83785 8.80313 7.83785C8.63424 7.84205 8.46804 7.88111 8.31496 7.95259C8.16188 8.02406 8.02522 8.12641 7.91357 8.2532C7.60752 8.58616 6.75159 9.39164 6.75159 11.0346C6.75159 12.6775 7.94552 14.2565 8.11368 14.4801C8.27847 14.7038 10.4578 18.0653 13.8025 19.5115C14.5929 19.8562 15.215 20.0597 15.701 20.2144C16.4998 20.47 17.2212 20.4313 17.7963 20.3489C18.4353 20.2514 19.7654 19.5417 20.0463 18.7632C20.322 17.9829 20.322 17.317 20.238 17.1774C20.1556 17.0362 19.9319 16.9538 19.599 16.7873Z" fill="white"/>
</svg>
