<svg width="38" height="29" viewBox="0 0 38 29" fill="none" xmlns="http://www.w3.org/2000/svg">
<path d="M18.9832 28.2994C17.1369 28.2994 15.6263 26.9281 15.6263 25.2521C15.6263 23.5761 17.1369 22.2048 18.9832 22.2048C20.8295 22.2048 22.3401 23.5761 22.3401 25.2521C22.3401 26.9281 20.8295 28.2994 18.9832 28.2994ZM18.9832 23.7285C18.0601 23.7285 17.3048 24.4141 17.3048 25.2521C17.3048 26.0901 18.0601 26.7758 18.9832 26.7758C19.9064 26.7758 20.6617 26.0901 20.6617 25.2521C20.6617 24.4141 19.9064 23.7285 18.9832 23.7285ZM29.6581 15.5618C26.8048 12.9716 23.0115 11.5394 18.9832 11.5394C14.9549 11.5394 11.1617 12.9716 8.3083 15.5618L9.5 16.6436C12.0345 14.3429 15.4081 13.0782 19 13.0782C22.5919 13.0782 25.9655 14.3429 28.5 16.6436L29.6917 15.5618H29.6581ZM37.9664 8.01976C32.8975 3.41836 26.1502 0.873886 18.9832 0.873886C11.8163 0.873886 5.0689 3.40313 0 8.01976L1.1917 9.10154C5.9417 4.78964 12.2694 2.41276 19 2.41276C25.7306 2.41276 32.0415 4.78964 36.8083 9.10154L38 8.01976H37.9664Z" fill="white"/>
</svg>
