<svg width="28" height="20" viewBox="0 0 28 20" fill="none" xmlns="http://www.w3.org/2000/svg">
<path d="M14.1707 0.609131H14.3203C15.7026 0.614176 22.7064 0.664624 24.5949 1.17246C25.1657 1.32745 25.686 1.62956 26.1035 2.04859C26.5211 2.46762 26.8213 2.98889 26.9743 3.56033C27.1441 4.19933 27.2635 5.04517 27.3443 5.91792L27.3611 6.09281L27.3981 6.53002L27.4115 6.70491C27.5208 8.24188 27.5343 9.68132 27.536 9.99578V10.1219C27.5343 10.4481 27.5191 11.9851 27.3981 13.586L27.3846 13.7626L27.3695 13.9374C27.2854 14.8993 27.161 15.8545 26.9743 16.5574C26.8218 17.129 26.5217 17.6505 26.1041 18.0696C25.6864 18.4887 25.166 18.7907 24.5949 18.9452C22.6442 19.4699 15.2301 19.5069 14.2026 19.5086H13.9638C13.4442 19.5086 11.2951 19.4985 9.0418 19.4211L8.75593 19.411L8.60963 19.4043L8.32208 19.3925L8.03453 19.3808C6.16796 19.2984 4.39052 19.1655 3.57158 18.9435C3.00066 18.7892 2.48034 18.4875 2.06273 18.0687C1.64512 17.6499 1.34489 17.1287 1.19213 16.5574C1.00547 15.8561 0.881032 14.8993 0.796952 13.9374L0.7835 13.7609L0.770047 13.586C0.687056 12.4465 0.641069 11.3047 0.632156 10.1623L0.632156 9.95542C0.63552 9.59388 0.648972 8.34446 0.739778 6.96555L0.751549 6.79235L0.756594 6.70491L0.770047 6.53002L0.807042 6.09281L0.823858 5.91792C0.904574 5.04517 1.02397 4.19765 1.19381 3.56033C1.34632 2.98866 1.64643 2.46714 2.06405 2.04804C2.48168 1.62894 3.00214 1.32699 3.57326 1.17246C4.3922 0.953858 6.16964 0.81933 8.03621 0.73525L8.32208 0.723479L8.61131 0.71339L8.75593 0.708345L9.04348 0.696574C10.6439 0.645074 12.2449 0.616484 13.8461 0.610813H14.1707V0.609131ZM11.3944 6.00704V14.109L18.3847 10.0597L11.3944 6.00704Z" fill="white"/>
</svg>
